<?xml version="1.0" encoding="UTF-8"?><svg id="Layer_2" xmlns="http://www.w3.org/2000/svg" viewBox="0 0 859.14 132.65"><g id="Layer_1-2"><g><g><path d="M242.81,31.02v7.96s-34.66,.03-34.66,.03l.02,25.25,29.63-.03v7.96s-29.62,.03-29.62,.03l.03,31.04h-9.83s-.07-72.2-.07-72.2l44.5-.04Z" style="fill:#fff;"/><path d="M265.84,36.14c0,.87-.17,1.69-.53,2.44-.35,.76-.82,1.43-1.41,2.02-.59,.59-1.27,1.05-2.04,1.39-.77,.34-1.6,.5-2.47,.51-.87,0-1.69-.17-2.44-.5-.76-.33-1.43-.8-2.02-1.38-.59-.59-1.05-1.26-1.39-2.01s-.51-1.57-.51-2.44c0-.87,.17-1.71,.5-2.5,.33-.79,.8-1.48,1.38-2.07,.59-.59,1.26-1.05,2.02-1.39,.76-.34,1.57-.51,2.44-.51,.87,0,1.7,.17,2.47,.5,.77,.34,1.45,.8,2.04,1.38,.59,.59,1.06,1.28,1.41,2.06,.35,.79,.53,1.62,.53,2.49Zm-2,16.03l.05,51.05h-8.97s-.05-51.04-.05-51.04h8.97Z" style="fill:#fff;"/><path d="M295.19,103.99c-4.03,0-7.13-1.12-9.3-3.37-2.17-2.25-3.26-5.49-3.26-9.72l-.03-31.24h-6.15c-.54,0-.99-.15-1.36-.47-.37-.32-.56-.81-.56-1.49v-3.58s8.36-1.07,8.36-1.07l2.05-15.77c.07-.5,.28-.92,.65-1.24,.37-.32,.84-.48,1.41-.48h4.54s.02,17.58,.02,17.58h14.61s0,6.49,0,6.49h-14.61s.03,30.65,.03,30.65c0,2.15,.52,3.75,1.57,4.79,1.04,1.04,2.39,1.56,4.03,1.56,.94,0,1.75-.13,2.44-.38,.69-.25,1.28-.53,1.79-.83,.5-.3,.93-.58,1.28-.83,.35-.25,.66-.38,.93-.38,.47,0,.89,.29,1.26,.86l2.62,4.28c-1.54,1.45-3.41,2.58-5.59,3.41-2.18,.82-4.43,1.24-6.75,1.24Z" style="fill:#fff;"/><path d="M317.31,103.16l-.05-51.05h5.34c1.28,0,2.08,.62,2.42,1.86l.71,5.54c2.21-2.45,4.69-4.44,7.43-5.95,2.74-1.51,5.9-2.27,9.5-2.28,2.79,0,5.25,.46,7.38,1.38,2.13,.92,3.92,2.23,5.35,3.92,1.43,1.7,2.51,3.74,3.26,6.12,.74,2.38,1.11,5.02,1.12,7.91l.03,32.5h-8.97s-.03-32.49-.03-32.49c0-3.86-.89-6.86-2.65-8.99-1.77-2.13-4.46-3.2-8.09-3.19-2.65,0-5.13,.64-7.43,1.92-2.3,1.28-4.42,3.01-6.37,5.2l.04,37.59h-8.97Z" style="fill:#fff;"/><path d="M393.5,51.24c3.06,0,5.88,.51,8.47,1.53,2.59,1.02,4.82,2.5,6.71,4.43,1.88,1.93,3.36,4.31,4.42,7.15,1.06,2.84,1.59,6.07,1.6,9.7,0,1.41-.15,2.35-.45,2.82-.3,.47-.87,.71-1.71,.71l-33.96,.03c.07,3.22,.51,6.03,1.32,8.41,.81,2.38,1.92,4.38,3.33,5.97,1.41,1.59,3.09,2.79,5.04,3.57,1.95,.79,4.13,1.18,6.55,1.18,2.25,0,4.19-.26,5.82-.79,1.63-.52,3.03-1.09,4.21-1.69,1.18-.61,2.16-1.17,2.95-1.69,.79-.52,1.47-.78,2.04-.78,.74,0,1.31,.28,1.71,.85l2.52,3.27c-1.11,1.34-2.43,2.51-3.98,3.51-1.54,.99-3.2,1.81-4.96,2.45-1.76,.64-3.58,1.12-5.47,1.44-1.88,.32-3.75,.48-5.59,.48-3.53,0-6.78-.59-9.75-1.78-2.97-1.19-5.55-2.93-7.72-5.23-2.17-2.3-3.86-5.14-5.07-8.54-1.21-3.39-1.82-7.29-1.83-11.69,0-3.56,.54-6.89,1.63-9.98,1.09-3.09,2.66-5.77,4.7-8.04,2.05-2.27,4.55-4.05,7.5-5.35,2.95-1.29,6.28-1.95,9.98-1.95Zm.21,6.6c-4.33,0-7.74,1.26-10.23,3.76-2.48,2.5-4.03,5.98-4.63,10.41l27.77-.03c0-2.08-.29-3.99-.86-5.72-.57-1.73-1.41-3.22-2.52-4.48-1.11-1.26-2.46-2.23-4.06-2.92s-3.42-1.03-5.47-1.03Z" style="fill:#fff;"/><path d="M455.34,60.4c-.4,.74-1.02,1.11-1.86,1.11-.5,0-1.08-.18-1.71-.55-.64-.37-1.42-.78-2.34-1.23-.92-.45-2.03-.87-3.3-1.26-1.28-.38-2.79-.58-4.54-.58-1.51,0-2.87,.2-4.08,.58s-2.24,.92-3.1,1.59c-.86,.67-1.51,1.46-1.96,2.35-.45,.89-.68,1.86-.68,2.9,0,1.31,.38,2.4,1.14,3.27,.76,.87,1.76,1.63,3,2.26,1.24,.64,2.65,1.2,4.23,1.68,1.58,.49,3.2,1,4.86,1.56,1.66,.55,3.28,1.16,4.86,1.83,1.58,.67,2.99,1.51,4.24,2.52s2.25,2.24,3,3.7c.76,1.46,1.14,3.22,1.14,5.26,0,2.35-.42,4.53-1.25,6.53-.84,2-2.08,3.73-3.72,5.19-1.65,1.46-3.66,2.62-6.04,3.46-2.38,.84-5.14,1.26-8.26,1.27-3.56,0-6.79-.57-9.68-1.73-2.89-1.16-5.34-2.64-7.36-4.45l2.11-3.43c.27-.44,.59-.77,.96-1.01,.37-.23,.86-.35,1.46-.35,.6,0,1.24,.23,1.92,.7,.67,.47,1.49,.99,2.45,1.56,.96,.57,2.12,1.09,3.48,1.56,1.36,.47,3.07,.7,5.12,.7,1.75,0,3.27-.23,4.58-.68,1.31-.46,2.4-1.07,3.27-1.84,.87-.77,1.52-1.66,1.94-2.67,.42-1.01,.63-2.08,.63-3.23,0-1.41-.38-2.58-1.14-3.5-.76-.92-1.76-1.71-3-2.37-1.24-.65-2.66-1.22-4.26-1.71-1.6-.48-3.23-1-4.89-1.53-1.66-.54-3.29-1.15-4.89-1.83-1.6-.69-3.02-1.55-4.26-2.59-1.25-1.04-2.25-2.32-3-3.85-.76-1.53-1.14-3.38-1.14-5.57,0-1.95,.4-3.82,1.2-5.62,.8-1.8,1.98-3.38,3.52-4.74,1.54-1.36,3.44-2.45,5.69-3.26,2.25-.81,4.82-1.21,7.71-1.22,3.36,0,6.38,.52,9.05,1.58s4.98,2.51,6.93,4.35l-2.01,3.28Z" style="fill:#fff;"/><path d="M499.08,60.35c-.4,.74-1.02,1.11-1.86,1.11-.5,0-1.08-.18-1.71-.55-.64-.37-1.42-.78-2.34-1.23-.92-.45-2.03-.87-3.3-1.26-1.28-.38-2.79-.58-4.54-.58-1.51,0-2.87,.2-4.08,.58-1.21,.39-2.24,.92-3.1,1.59s-1.51,1.46-1.96,2.34c-.45,.89-.68,1.86-.68,2.9,0,1.31,.38,2.4,1.14,3.27,.76,.87,1.76,1.63,3,2.26,1.24,.64,2.65,1.2,4.23,1.68,1.58,.49,3.2,1,4.86,1.56,1.66,.55,3.28,1.16,4.86,1.83,1.58,.67,2.99,1.51,4.24,2.52s2.25,2.24,3,3.7c.76,1.46,1.14,3.22,1.14,5.26,0,2.35-.42,4.53-1.25,6.53s-2.08,3.73-3.72,5.19c-1.65,1.46-3.66,2.62-6.04,3.46-2.38,.84-5.14,1.26-8.26,1.27-3.56,0-6.79-.57-9.68-1.73-2.89-1.16-5.34-2.64-7.36-4.45l2.11-3.43c.27-.44,.59-.77,.96-1.01,.37-.24,.86-.35,1.46-.35,.6,0,1.24,.23,1.92,.7,.67,.47,1.49,.99,2.45,1.56,.96,.57,2.12,1.09,3.48,1.56,1.36,.47,3.07,.7,5.12,.7,1.75,0,3.27-.23,4.58-.68,1.31-.46,2.4-1.07,3.27-1.84,.87-.77,1.52-1.67,1.94-2.67,.42-1.01,.63-2.08,.63-3.23,0-1.41-.38-2.58-1.14-3.5-.76-.92-1.76-1.71-3-2.37-1.24-.65-2.66-1.22-4.26-1.71-1.6-.48-3.23-1-4.89-1.53-1.66-.54-3.29-1.15-4.89-1.83-1.6-.69-3.02-1.55-4.26-2.59-1.25-1.04-2.25-2.32-3-3.85-.76-1.53-1.14-3.38-1.14-5.57,0-1.95,.4-3.82,1.2-5.62,.8-1.8,1.98-3.38,3.52-4.74s3.44-2.45,5.69-3.26,4.82-1.21,7.71-1.22c3.36,0,6.38,.52,9.05,1.58s4.98,2.51,6.93,4.35l-2.01,3.28Z" style="fill:#fff;"/></g><g><path d="M587.14,30.69v8.21s-23.32,.02-23.32,.02l.06,64h-9.78s-.06-63.99-.06-63.99l-23.43,.02v-8.21s56.53-.05,56.53-.05Z" style="fill:#fff;"/><path d="M584.99,102.9l-.05-51.05h5.14c.97,0,1.65,.18,2.02,.55,.37,.37,.62,1.01,.76,1.91l.61,7.96c1.74-3.56,3.9-6.34,6.47-8.35,2.57-2,5.58-3,9.04-3.01,1.41,0,2.69,.16,3.83,.47,1.14,.32,2.2,.76,3.18,1.33l-1.15,6.7c-.23,.84-.75,1.26-1.56,1.26-.47,0-1.19-.16-2.17-.48-.98-.32-2.34-.48-4.08-.47-3.12,0-5.74,.91-7.83,2.73-2.1,1.82-3.85,4.46-5.26,7.92l.03,32.5h-8.97Z" style="fill:#fff;"/><path d="M662.39,102.83h-3.98c-.87,0-1.58-.13-2.12-.4-.54-.27-.89-.84-1.06-1.71l-1.01-4.74c-1.34,1.21-2.65,2.3-3.93,3.25-1.28,.96-2.62,1.77-4.03,2.42-1.41,.66-2.91,1.15-4.51,1.49-1.6,.34-3.37,.51-5.32,.51-1.98,0-3.84-.27-5.57-.83-1.73-.55-3.24-1.39-4.51-2.5-1.28-1.11-2.29-2.52-3.05-4.22-.76-1.7-1.14-3.71-1.14-6.04,0-2.02,.55-3.97,1.66-5.84,1.11-1.87,2.89-3.53,5.36-4.99,2.47-1.45,5.7-2.64,9.7-3.57,4-.93,8.88-1.4,14.66-1.4v-4.01c0-3.99-.86-7-2.56-9.05-1.7-2.04-4.21-3.06-7.54-3.06-2.18,0-4.02,.28-5.52,.84s-2.79,1.18-3.88,1.87c-1.09,.69-2.03,1.31-2.82,1.87-.79,.56-1.57,.83-2.34,.83-.6,0-1.13-.16-1.59-.48-.45-.32-.82-.71-1.08-1.18l-1.62-2.87c2.82-2.72,5.86-4.76,9.11-6.11,3.26-1.35,6.87-2.02,10.83-2.03,2.85,0,5.39,.46,7.61,1.4,2.22,.94,4.08,2.25,5.6,3.92,1.51,1.68,2.66,3.71,3.43,6.09,.77,2.38,1.16,5,1.17,7.86l.03,32.65Zm-23.29-5.47c1.58,0,3.02-.16,4.33-.48,1.31-.32,2.54-.77,3.7-1.36,1.16-.59,2.27-1.3,3.32-2.14,1.06-.84,2.09-1.8,3.1-2.88v-10.53c-4.14,0-7.65,.27-10.54,.8-2.89,.53-5.24,1.21-7.05,2.06-1.81,.85-3.13,1.84-3.95,2.99-.82,1.15-1.23,2.43-1.23,3.85,0,1.35,.22,2.52,.66,3.5,.44,.98,1.03,1.78,1.77,2.41,.74,.62,1.61,1.08,2.62,1.37s2.1,.43,3.28,.43Z" style="fill:#fff;"/><path d="M710.78,60.81c-.27,.37-.54,.66-.81,.86-.27,.2-.66,.3-1.16,.3-.5,0-1.05-.21-1.64-.63-.59-.42-1.34-.88-2.24-1.38-.91-.5-2.01-.96-3.3-1.38-1.29-.42-2.88-.63-4.76-.63-2.49,0-4.69,.45-6.6,1.34-1.91,.89-3.52,2.18-4.81,3.86-1.29,1.68-2.26,3.71-2.92,6.1-.65,2.39-.98,5.06-.97,8.01,0,3.09,.36,5.84,1.07,8.24,.71,2.4,1.7,4.42,2.98,6.04,1.28,1.63,2.83,2.87,4.67,3.72,1.83,.86,3.89,1.28,6.17,1.28,2.18,0,3.98-.26,5.39-.79s2.59-1.1,3.53-1.74c.94-.64,1.71-1.22,2.32-1.74,.6-.52,1.21-.78,1.81-.78,.77,0,1.34,.28,1.71,.85l2.52,3.27c-2.21,2.72-4.98,4.72-8.31,5.98-3.32,1.26-6.83,1.9-10.53,1.9-3.19,0-6.16-.58-8.9-1.75s-5.12-2.88-7.13-5.11c-2.02-2.23-3.61-4.98-4.77-8.23-1.16-3.26-1.75-6.97-1.75-11.14,0-3.8,.52-7.31,1.58-10.53,1.05-3.23,2.6-6.01,4.63-8.34s4.54-4.16,7.53-5.48c2.99-1.31,6.41-1.97,10.28-1.98,3.56,0,6.72,.57,9.48,1.73,2.75,1.16,5.19,2.79,7.31,4.91l-2.36,3.23Z" style="fill:#fff;"/><path d="M732.31,28.53l.04,43.69h2.32c.67,0,1.23-.1,1.66-.28,.44-.18,.92-.56,1.46-1.13l16.11-17.3c.5-.54,1.01-.97,1.51-1.31,.5-.34,1.17-.51,2.01-.51h8.16s-18.78,20.02-18.78,20.02c-.47,.57-.93,1.08-1.38,1.51-.45,.44-.96,.83-1.54,1.16,.61,.4,1.15,.86,1.64,1.38,.49,.52,.95,1.12,1.39,1.79l19.98,25.18h-8.06c-.74,0-1.37-.13-1.89-.42-.52-.28-1.02-.73-1.49-1.33l-16.8-20.9c-.5-.71-1.01-1.17-1.51-1.38-.5-.22-1.26-.33-2.27-.33h-2.52s.02,24.39,.02,24.39h-9.02s-.07-74.22-.07-74.22h9.02Z" style="fill:#fff;"/><path d="M793.21,50.85c3.06,0,5.88,.51,8.47,1.53,2.59,1.02,4.82,2.5,6.71,4.43,1.88,1.93,3.36,4.31,4.42,7.15,1.06,2.84,1.59,6.07,1.6,9.7,0,1.41-.15,2.35-.45,2.82-.3,.47-.87,.71-1.71,.71l-33.96,.03c.07,3.22,.51,6.03,1.32,8.41,.81,2.38,1.92,4.38,3.33,5.97,1.41,1.59,3.09,2.79,5.04,3.57,1.95,.79,4.13,1.18,6.55,1.18,2.25,0,4.19-.26,5.82-.79,1.63-.52,3.03-1.09,4.21-1.69,1.17-.61,2.16-1.17,2.95-1.69s1.47-.78,2.04-.78c.74,0,1.31,.28,1.71,.85l2.52,3.27c-1.11,1.35-2.43,2.51-3.98,3.51-1.54,.99-3.2,1.81-4.96,2.45-1.76,.64-3.58,1.12-5.47,1.44-1.88,.32-3.75,.48-5.59,.48-3.53,0-6.78-.59-9.75-1.78-2.97-1.19-5.55-2.93-7.71-5.23s-3.86-5.14-5.07-8.54c-1.21-3.39-1.82-7.29-1.83-11.69,0-3.56,.54-6.89,1.63-9.98,1.09-3.09,2.66-5.77,4.7-8.04,2.05-2.27,4.55-4.05,7.5-5.35,2.95-1.3,6.28-1.95,9.98-1.95Zm.21,6.6c-4.33,0-7.74,1.26-10.23,3.76-2.48,2.51-4.03,5.98-4.63,10.41l27.77-.03c0-2.08-.29-3.99-.86-5.72-.57-1.73-1.41-3.22-2.52-4.48-1.11-1.26-2.46-2.23-4.06-2.92-1.6-.69-3.42-1.03-5.47-1.03Z" style="fill:#fff;"/><path d="M825.86,102.67l-.05-51.05h5.14c.97,0,1.65,.18,2.02,.55,.37,.37,.62,1.01,.76,1.91l.61,7.96c1.74-3.56,3.9-6.34,6.47-8.35,2.57-2,5.58-3,9.04-3.01,1.41,0,2.69,.16,3.83,.47,1.14,.32,2.2,.76,3.18,1.33l-1.15,6.7c-.23,.84-.75,1.26-1.56,1.26-.47,0-1.19-.16-2.17-.48-.97-.32-2.34-.48-4.08-.47-3.12,0-5.74,.91-7.83,2.73s-3.85,4.46-5.26,7.92l.03,32.5h-8.97Z" style="fill:#fff;"/></g><path d="M82.86,75.22v3.77c0,1.89-1.55,3.55-3.55,3.55-.78,0-1.44-.22-2-.67v1.77c0,1.89-1.55,3.55-3.55,3.55-1.89,0-3.55-1.55-3.55-3.55v-8.1H34.28v8.1c0,1.89-1.55,3.55-3.55,3.55-1.89,0-3.55-1.55-3.55-3.55v-1.55c-.55,.33-1.11,.44-1.77,.44-1.89,0-3.55-1.55-3.55-3.55v-3.66c-1.44-.44-2.55-1.77-2.55-3.33,0-1.66,1.11-3,2.55-3.33v-4.33c0-1.89,1.55-3.55,3.55-3.55,.67,0,1.22,.22,1.77,.44v-1.55c0-1.89,1.55-3.55,3.55-3.55,1.89,0,3.55,1.55,3.55,3.55v8.76h35.94v-8.76c0-1.89,1.55-3.55,3.55-3.55,1.89,0,3.55,1.55,3.55,3.55v1.77c.55-.44,1.33-.67,2-.67,1.89,0,3.55,1.55,3.55,3.55v4.44c1.33,.44,2.33,1.77,2.33,3.33,0,1.33-1,2.55-2.33,3.11Zm20.85-7.21l-5.32-9.32v-10.32c0-2.33-1.22-4.44-3.22-5.66l-8.99-5.21-5.32-9.21c-1.11-2-3.33-3.22-5.66-3.22h-10.65l-9.1-5.21c-2-1.11-4.55-1.11-6.54,0l-9.1,5.21h-10.43c-2.33,0-4.44,1.22-5.66,3.22l-5.21,8.99-9.32,5.32c-2,1.11-3.22,3.33-3.22,5.66v10.65L.89,67.79c-.55,1-.89,2.11-.89,3.22s.33,2.22,.89,3.22l5.1,8.87v10.65c0,2.33,1.22,4.44,3.22,5.66l9.32,5.32,5.21,8.99c1.11,2,3.33,3.22,5.66,3.22h10.43l9.1,5.21c1,.55,2.11,.89,3.22,.89s2.22-.33,3.22-.89l9.1-5.21h10.65c2.33,0,4.44-1.22,5.66-3.22l5.32-9.21,8.99-5.21c2-1.11,3.22-3.33,3.22-5.66v-10.32l5.32-9.32c1.22-1.55,1.22-3.99,.11-5.99Z" style="fill:#fff;"/><rect x="144.39" width="1.92" height="132.65" style="fill:#fff;"/></g></g></svg>